<?xml version="1.0" encoding="UTF-8"?>
<!DOCTYPE svg PUBLIC "-//W3C//DTD SVG 1.1//EN" "http://www.w3.org/Graphics/SVG/1.1/DTD/svg11.dtd">
<svg xmlns="http://www.w3.org/2000/svg" version="1.1" width="1000px" height="1125px" style="shape-rendering:geometricPrecision; text-rendering:geometricPrecision; image-rendering:optimizeQuality; fill-rule:evenodd; clip-rule:evenodd" xmlns:xlink="http://www.w3.org/1999/xlink">
<g><path style="opacity:0.995" fill="#fa4237" d="M -0.5,522.5 C -0.5,519.833 -0.5,517.167 -0.5,514.5C 4.25483,489.739 8.4215,464.739 12,439.5C 16.309,407.227 27.309,377.561 45,350.5C 47.6667,347.167 50.3333,343.833 53,340.5C 74.6922,319.807 96.0255,298.807 117,277.5C 119,274.167 121,270.833 123,267.5C 126.079,257.929 129.745,248.596 134,239.5C 163.621,208.542 194.454,179.042 226.5,151C 229.382,149.392 232.382,148.059 235.5,147C 246.876,146.362 258.21,146.862 269.5,148.5C 273.163,148.056 276.829,147.722 280.5,147.5C 288.633,121.167 306.467,106.5 334,103.5C 338.088,103.651 342.088,104.318 346,105.5C 352.245,103.581 357.745,100.414 362.5,96C 369.944,87.5501 378.277,80.2168 387.5,74C 390.528,72.8603 392.695,73.6936 394,76.5C 393.958,82.5408 394.125,88.5408 394.5,94.5C 406.178,86.3235 418.511,79.1569 431.5,73C 451.766,64.5777 472.266,56.7444 493,49.5C 496.582,50.8052 500.082,52.3052 503.5,54C 509.167,58.3333 514.833,62.6667 520.5,67C 525.102,68.7488 529.768,68.9155 534.5,67.5C 534.881,76.5679 534.381,85.5679 533,94.5C 530,102.434 524.167,106.6 515.5,107C 453.677,102.54 396.01,115.873 342.5,147C 311.002,164.912 280.002,183.579 249.5,203C 221.369,228.13 194.203,254.297 168,281.5C 134.531,317.72 112.198,360.054 101,408.5C 99.2342,416.428 97.9008,424.428 97,432.5C 92.7326,471.508 88.3992,510.508 84,549.5C 81.2148,557.071 77.8814,564.405 74,571.5C 72.4071,575.731 71.2404,580.065 70.5,584.5C 74.6917,609.833 78.0251,635.167 80.5,660.5C 72.0177,654.495 67.851,656.829 68,667.5C 69.1472,672.314 71.6472,676.148 75.5,679C 79.115,679.356 81.7816,677.856 83.5,674.5C 84.086,674.709 84.586,675.043 85,675.5C 94.7249,698.617 104.725,721.617 115,744.5C 120.901,753.737 127.568,762.404 135,770.5C 152.805,789.305 170.971,807.805 189.5,826C 223.103,856.267 256.103,887.267 288.5,919C 295.728,919.088 302.728,917.755 309.5,915C 311.84,913.16 313.84,910.993 315.5,908.5C 318.247,917.837 314.914,924.337 305.5,928C 326.194,942.012 348.861,951.346 373.5,956C 421.206,959.172 468.206,966.672 514.5,978.5C 535.447,972.731 556.78,969.231 578.5,968C 583.755,964.749 588.422,960.749 592.5,956C 594.081,955.293 595.581,954.46 597,953.5C 597.509,948.77 598.342,944.103 599.5,939.5C 600.833,940.833 602.167,942.167 603.5,943.5C 605.032,937.743 604.032,932.41 600.5,927.5C 600.833,927.167 601.167,926.833 601.5,926.5C 607.914,932.414 613.414,939.08 618,946.5C 619.1,942.778 621.266,939.944 624.5,938C 627.838,936.794 629.671,937.96 630,941.5C 630.652,936.923 631.485,932.423 632.5,928C 633.5,927.333 634.5,927.333 635.5,928C 636.63,930.428 638.13,932.595 640,934.5C 641.711,932.044 643.044,929.377 644,926.5C 644.903,925.299 646.069,924.465 647.5,924C 653.568,923.88 659.568,923.88 665.5,924C 662.601,928.686 663.434,932.52 668,935.5C 673.909,932.095 679.409,928.095 684.5,923.5C 686.942,926.202 689.276,929.035 691.5,932C 697.263,935.127 702.93,934.794 708.5,931C 773.93,888.07 837.264,842.237 898.5,793.5C 898.833,794.833 899.167,796.167 899.5,797.5C 898.862,800.503 898.695,803.503 899,806.5C 900.667,801.167 902.333,795.833 904,790.5C 904.414,790.043 904.914,789.709 905.5,789.5C 909.401,793.186 913.401,793.352 917.5,790C 927.958,771.599 941.958,756.432 959.5,744.5C 944.196,790.106 922.696,832.773 895,872.5C 883.667,886.5 872.333,900.5 861,914.5C 860.25,936.234 849.083,945.068 827.5,941C 823.498,942.154 820.498,944.487 818.5,948C 819.171,951.164 820.505,953.997 822.5,956.5C 822.167,956.833 821.833,957.167 821.5,957.5C 817.552,953.86 812.885,951.86 807.5,951.5C 799.645,952.951 791.978,955.118 784.5,958C 783.483,959.049 783.316,960.216 784,961.5C 786.964,965.466 790.297,969.133 794,972.5C 798.331,978.969 799.831,985.969 798.5,993.5C 793.164,988.664 788.164,983.497 783.5,978C 782.5,977.333 781.5,977.333 780.5,978C 777.328,979.752 774.328,981.752 771.5,984C 758.637,996.529 746.137,1009.36 734,1022.5C 731.184,1029.64 730.684,1036.97 732.5,1044.5C 723.75,1044.09 715.084,1044.59 706.5,1046C 704.106,1047.95 702.606,1050.45 702,1053.5C 701.667,1059.5 701.333,1065.5 701,1071.5C 697.526,1070.68 694.359,1069.18 691.5,1067C 688.21,1061.77 684.21,1057.11 679.5,1053C 678.127,1052.13 676.627,1051.63 675,1051.5C 663.245,1053.32 651.745,1056.15 640.5,1060C 638.004,1061.08 635.67,1062.41 633.5,1064C 637.266,1070.11 635.6,1073.61 628.5,1074.5C 625.174,1073.95 621.84,1073.45 618.5,1073C 605.264,1063.13 590.431,1057.63 574,1056.5C 568.107,1056.22 562.44,1057.22 557,1059.5C 528.392,1051.36 499.226,1048.19 469.5,1050C 446.406,1051.24 423.406,1053.41 400.5,1056.5C 400.38,1052.96 400.714,1049.46 401.5,1046C 401.375,1044.37 400.875,1042.87 400,1041.5C 397.293,1045.03 393.793,1046.2 389.5,1045C 378.763,1037.94 367.763,1031.27 356.5,1025C 339.833,1016.33 323.167,1007.67 306.5,999C 281.247,1000.25 259.247,992.584 240.5,976C 233.743,971.859 226.41,969.525 218.5,969C 175.752,974.056 146.919,956.556 132,916.5C 127.986,905.098 124.986,893.432 123,881.5C 119.689,873.183 113.689,868.183 105,866.5C 98.594,846.949 91.594,827.615 84,808.5C 67.3333,770.5 50.6667,732.5 34,694.5C 32.0307,688.987 30.6973,683.321 30,677.5C 29.3333,667.5 29.3333,657.5 30,647.5C 40.4829,651.359 44.4829,647.692 42,636.5C 34.7963,595.785 20.6297,557.785 -0.5,522.5 Z M 99.5,737.5 C 95.2786,735.778 91.7786,733.112 89,729.5C 87.9191,724.524 86.9191,719.524 86,714.5C 83.3848,709.954 81.3848,705.287 80,700.5C 81.6667,702.167 83.3333,703.833 85,705.5C 89.5878,716.338 94.4212,727.004 99.5,737.5 Z M 66.5,702.5 C 68.1238,702.36 69.2904,703.027 70,704.5C 71.8248,709.472 73.1581,714.472 74,719.5C 70.3104,715.311 66.8104,710.978 63.5,706.5C 64.5244,705.148 65.5244,703.815 66.5,702.5 Z"/></g>
<g><path style="opacity:0.995" fill="#fa4137" d="M 999.5,460.5 C 999.5,461.5 999.5,462.5 999.5,463.5C 993.804,477.6 989.637,492.267 987,507.5C 983.595,527.743 980.928,548.076 979,568.5C 976.208,560.077 975.041,551.411 975.5,542.5C 976.341,526.444 977.507,510.444 979,494.5C 975.284,500.177 970.95,500.843 966,496.5C 965.161,490.735 963.994,485.069 962.5,479.5C 941.801,463.311 926.801,442.811 917.5,418C 925.069,400.483 923.903,383.65 914,367.5C 906.702,360.689 899.035,354.356 891,348.5C 876.315,325.616 868.815,300.616 868.5,273.5C 860.575,278.382 852.075,281.715 843,283.5C 840.747,283.369 838.581,282.869 836.5,282C 801.833,257.333 767.167,232.667 732.5,208C 707.005,190.414 680.672,174.081 653.5,159C 631.74,158.811 611.407,153.478 592.5,143C 584.285,137.786 577.785,130.952 573,122.5C 569.218,108.564 574.051,99.0639 587.5,94C 593.829,93.4448 600.162,92.9448 606.5,92.5C 611.751,92.3503 616.751,93.3503 621.5,95.5C 623.704,90.2524 627.37,86.419 632.5,84C 675.016,78.0834 716.016,83.4167 755.5,100C 799.704,117.221 836.87,144.054 867,180.5C 900.667,234.5 934.333,288.5 968,342.5C 971.744,370.786 975.077,399.119 978,427.5C 979.24,444.143 979.74,460.81 979.5,477.5C 982.614,476.909 985.114,475.242 987,472.5C 989.114,466.217 993.281,462.217 999.5,460.5 Z"/></g>
<g><path style="opacity:0.998" fill="#f94137" d="M 240.5,280.5 C 306.833,280.5 373.167,280.5 439.5,280.5C 436.5,400.495 434,520.495 432,640.5C 433.599,661.746 444.432,675.579 464.5,682C 485.125,686.999 505.792,687.332 526.5,683C 547.117,678.717 559.283,666.217 563,645.5C 564.028,637.539 564.528,629.539 564.5,621.5C 561.716,507.815 558.716,394.148 555.5,280.5C 623.167,280.5 690.833,280.5 758.5,280.5C 755.512,405.489 753.012,530.489 751,655.5C 748.176,730.94 712.676,784.44 644.5,816C 608.978,830.797 571.978,839.463 533.5,842C 491.29,845.231 449.29,843.564 407.5,837C 365.867,830.673 328.867,814.34 296.5,788C 264.097,758.019 246.597,720.852 244,676.5C 243.907,636.83 244.407,597.164 245.5,557.5C 243.745,465.167 242.079,372.834 240.5,280.5 Z"/></g>
</svg>
